<?xml version="1.0" standalone="no"?>
<!DOCTYPE svg PUBLIC "-//W3C//DTD SVG 20010904//EN"
 "http://www.w3.org/TR/2001/REC-SVG-20010904/DTD/svg10.dtd">
<svg version="1.0" xmlns="http://www.w3.org/2000/svg"
 width="500.000000pt" height="500.000000pt" viewBox="0 0 500.000000 500.000000"
 preserveAspectRatio="xMidYMid meet">

<g transform="translate(0.000000,500.000000) scale(0.100000,-0.100000)"
fill="#000000" stroke="none">
<path d="M0 2500 l0 -2500 2500 0 2500 0 0 2500 0 2500 -2500 0 -2500 0 0
-2500z m720 790 c0 -5 -10 -11 -22 -11 l-23 -2 23 -4 c27 -5 29 -23 2 -23 -11
0 -20 -4 -20 -10 0 -5 11 -10 25 -10 14 0 25 -4 25 -10 0 -5 -16 -10 -35 -10
-35 0 -35 0 -35 45 0 43 1 45 30 45 17 0 30 -4 30 -10z m105 0 c4 -6 -6 -10
-22 -10 l-28 -1 28 -15 c38 -20 32 -48 -11 -52 -23 -2 -32 1 -32 11 0 11 7 13
22 9 14 -3 19 -2 14 6 -4 7 -14 12 -22 12 -14 0 -20 31 -7 43 10 11 51 8 58
-3z m105 1 c0 -5 -7 -11 -15 -15 -9 -3 -15 -18 -15 -36 0 -16 -4 -30 -10 -30
-5 0 -10 16 -10 35 0 24 -5 35 -15 35 -8 0 -15 5 -15 10 0 6 18 10 40 10 22 0
40 -4 40 -9z m197 -7 c3 -9 2 -24 -4 -33 -7 -12 -6 -19 6 -28 14 -10 10 -12
-21 -13 -36 0 -49 12 -28 25 5 3 15 16 21 27 10 19 9 20 -10 15 -14 -3 -21 0
-21 9 0 20 49 18 57 -2z m101 4 c29 -29 3 -84 -35 -76 -25 5 -40 52 -23 72 15
19 41 21 58 4z m107 -33 c0 -38 -2 -40 -30 -40 -33 0 -41 18 -31 61 5 20 12
25 34 22 24 -3 27 -7 27 -43z m105 29 c21 -24 1 -69 -30 -69 -18 0 -27 8 -34
27 -11 31 5 58 34 58 10 0 23 -7 30 -16z m2440 -45 l0 -29 -1142 2 -1143 3 0
25 0 25 1135 5 c624 3 1138 4 1143 2 4 -2 7 -16 7 -33z m-2900 -14 c0 -8 -4
-15 -10 -15 -5 0 -10 7 -10 15 0 8 5 15 10 15 6 0 10 -7 10 -15z m55 -383 c32
-59 80 -149 107 -199 l50 -93 -51 0 c-45 0 -53 3 -63 25 -11 24 -14 25 -110
25 -95 0 -99 -1 -110 -25 -10 -22 -18 -25 -60 -25 l-48 0 55 103 c31 56 79
148 107 204 29 56 55 100 59 97 4 -2 33 -52 64 -112z m404 43 c54 -41 105 -75
111 -75 6 0 39 21 73 48 57 43 103 76 135 96 9 6 12 -37 12 -198 l0 -206 -45
0 -45 0 0 115 c0 63 -3 115 -7 115 -3 0 -30 -18 -59 -40 -29 -22 -58 -40 -64
-40 -6 0 -35 18 -64 40 -29 22 -56 40 -59 40 -4 0 -7 -52 -7 -115 l0 -115 -45
0 -45 0 0 205 c0 113 2 205 5 205 2 0 49 -34 104 -75z m728 13 c18 -35 66
-127 108 -205 l75 -143 -50 0 c-44 0 -52 3 -62 25 -11 24 -14 25 -110 25 -95
0 -99 -1 -110 -25 -9 -21 -18 -25 -55 -25 -33 0 -44 4 -41 14 5 21 202 396
208 396 3 0 20 -28 37 -62z m1371 -58 l3 110 44 0 45 0 0 -206 0 -206 -42 34
c-23 18 -87 70 -142 115 l-101 82 -3 -110 -3 -109 -44 0 -45 0 0 206 0 205
143 -116 142 -115 3 110z m-824 -47 l-105 -158 106 -3 105 -3 0 -39 0 -40
-180 0 c-99 0 -180 2 -180 5 0 2 45 73 101 157 l100 153 -90 3 -91 3 0 39 0
40 169 0 170 0 -105 -157z m356 -43 l0 -200 -45 0 -45 0 0 200 0 200 45 0 45
0 0 -200z m1010 190 c35 -10 110 -64 110 -80 0 -4 -14 -17 -32 -28 -31 -20
-32 -20 -56 -2 -65 52 -147 43 -189 -19 -27 -40 -29 -82 -7 -121 34 -56 114
-78 164 -43 55 38 52 53 -10 53 l-50 0 0 40 0 40 103 0 c57 0 106 -2 109 -5 3
-3 1 -27 -3 -52 -24 -125 -136 -200 -259 -173 -75 17 -145 86 -155 155 -10 64
0 113 32 159 52 73 147 103 243 76z m-805 -665 c32 -60 77 -146 101 -191 24
-45 44 -84 44 -88 0 -3 -22 -6 -48 -6 -42 0 -50 3 -60 25 -11 24 -15 25 -110
25 -96 0 -99 -1 -110 -25 -10 -21 -18 -25 -57 -25 -48 0 -52 5 -32 35 8 11 53
97 102 190 48 94 90 174 92 178 8 13 16 1 78 -118z m-2515 45 l0 -70 90 0 90
0 0 70 0 70 48 0 47 0 0 -200 0 -200 -47 0 -48 0 0 90 0 90 -90 0 -90 0 0 -90
0 -90 -45 0 -45 0 0 200 0 200 45 0 45 0 0 -70z m758 44 c130 -65 149 -239 37
-331 -107 -88 -274 -52 -331 71 -37 79 -27 149 29 213 66 75 171 94 265 47z
m372 -134 l0 -160 80 0 80 0 0 -40 0 -40 -125 0 -125 0 0 200 0 200 45 0 45 0
0 -160z m406 144 c-3 -9 -6 -99 -6 -200 l0 -184 -45 0 -45 0 0 200 0 200 51 0
c43 0 50 -3 45 -16z m453 -10 c139 -69 150 -251 20 -339 -42 -29 -50 -30 -166
-34 l-123 -3 0 201 0 201 108 0 c97 0 114 -3 161 -26z m924 -52 c25 -43 49
-86 53 -95 3 -9 9 -17 13 -17 3 1 31 43 61 95 l55 95 48 0 c26 0 47 -2 47 -4
0 -3 -36 -62 -80 -132 -80 -127 -80 -127 -80 -195 l0 -69 -48 0 -49 0 -2 65
c-2 62 -5 70 -76 182 -41 65 -79 126 -85 136 -10 15 -5 17 43 17 l53 0 47 -78z
m605 58 c17 -11 32 -23 32 -28 0 -5 -14 -19 -31 -31 -26 -19 -35 -21 -55 -12
-29 13 -54 5 -54 -18 0 -25 20 -41 53 -41 101 0 160 -108 104 -191 -46 -70
-137 -86 -216 -38 -36 22 -36 34 1 62 23 17 29 18 62 6 43 -16 69 -5 74 30 5
32 -13 48 -61 56 -58 10 -107 60 -107 110 0 47 14 71 53 95 41 26 103 25 145
0z m-960 -607 c5 -16 13 -36 17 -45 5 -13 2 -18 -9 -18 -9 0 -16 5 -16 10 0 6
-9 10 -20 10 -11 0 -20 -4 -20 -10 0 -5 -4 -10 -10 -10 -14 0 -13 11 5 54 18
43 39 46 53 9z m122 12 c0 -9 -8 -14 -22 -12 -17 1 -23 -3 -23 -17 0 -11 6
-21 13 -23 6 -3 12 2 12 11 0 19 16 21 23 4 8 -24 -5 -38 -34 -38 -37 0 -57
36 -40 69 14 25 71 30 71 6z m110 5 c0 -5 -12 -11 -27 -11 -24 -2 -25 -2 -5
-6 27 -5 29 -23 2 -23 -11 0 -20 -4 -20 -10 0 -5 11 -10 25 -10 14 0 25 -4 25
-10 0 -5 -16 -10 -35 -10 -35 0 -35 0 -35 45 0 45 0 45 35 45 19 0 35 -4 35
-10z m73 -12 l16 -23 0 23 c1 43 21 22 21 -23 0 -49 -4 -53 -32 -28 -17 15
-18 15 -18 0 0 -10 -7 -17 -15 -17 -11 0 -15 12 -15 45 0 51 17 60 43 23z
m149 7 c-1 -5 -12 -10 -25 -10 -15 0 -22 -6 -22 -20 0 -14 7 -20 22 -20 13 0
23 -5 23 -10 0 -6 -14 -10 -31 -10 -36 0 -52 26 -38 63 7 19 15 23 41 20 18
-2 32 -7 30 -13z m62 -2 c6 -14 8 -14 20 3 23 31 27 11 8 -34 -17 -43 -32 -54
-32 -27 0 9 -7 29 -15 45 -13 25 -13 30 -1 30 7 0 17 -7 20 -17z m-794 -38 l0
-35 -1140 0 -1140 0 0 35 0 35 1140 0 1140 0 0 -35z"/>
<path d="M1190 3255 c0 -14 5 -25 10 -25 6 0 10 11 10 25 0 14 -4 25 -10 25
-5 0 -10 -11 -10 -25z"/>
<path d="M1294 3266 c-4 -10 -2 -22 4 -28 8 -8 13 -7 18 6 4 10 2 22 -4 28 -8
8 -13 7 -18 -6z"/>
<path d="M1400 3255 c0 -14 5 -25 10 -25 6 0 10 11 10 25 0 14 -4 25 -10 25
-5 0 -10 -11 -10 -25z"/>
<path d="M937 2738 l-23 -53 49 -3 c27 -2 51 -1 54 1 5 5 -44 107 -52 107 -2
0 -14 -24 -28 -52z"/>
<path d="M2097 2735 l-27 -55 55 0 c30 0 55 2 55 5 0 7 -50 105 -53 105 -2 0
-15 -25 -30 -55z"/>
<path d="M3178 2192 c-35 -76 -36 -72 26 -72 l56 0 -27 55 c-15 30 -30 55 -33
55 -3 0 -13 -17 -22 -38z"/>
<path d="M1385 2302 c-56 -19 -85 -61 -85 -120 0 -104 137 -151 204 -71 34 40
41 70 26 113 -19 57 -92 96 -145 78z"/>
<path d="M2570 2190 l0 -120 53 0 c64 0 94 15 124 59 59 88 -6 181 -127 181
l-50 0 0 -120z"/>
</g>
</svg>
